# Blender v2.79 (sub 0) OBJ File: 'switch.blend'
# www.blender.org
v -0.000000 0.008334 -0.839026
v -0.000000 1.709974 -0.424441
v 0.419513 0.008334 -0.726618
v 0.212221 1.709974 -0.367577
v 0.726618 0.008334 -0.419513
v 0.367577 1.709974 -0.212221
v 0.839026 0.008334 0.000000
v 0.424442 1.709974 0.000000
v 0.726618 0.008334 0.419513
v 0.367577 1.709974 0.212221
v 0.419513 0.008334 0.726618
v 0.212221 1.709974 0.367577
v 0.000000 0.008334 0.839026
v 0.000000 1.709974 0.424442
v -0.419513 0.008334 0.726618
v -0.212221 1.709974 0.367577
v -0.726618 0.008334 0.419513
v -0.367577 1.709974 0.212221
v -0.839026 0.008334 0.000000
v -0.424442 1.709974 0.000000
v -0.726618 0.008334 -0.419512
v -0.367577 1.709974 -0.212220
v -0.419513 0.008334 -0.726617
v -0.212221 1.709974 -0.367577
vt 0.248788 0.361760
vt 0.104835 0.554402
vt 0.021105 0.409395
vt 0.279387 0.399788
vt 0.249785 0.638052
vt 0.324873 0.417694
vt 0.416964 0.638052
vt 0.372233 0.412037
vt 0.561793 0.554454
vt 0.409247 0.383191
vt 0.645320 0.409575
vt 0.417387 0.291501
vt 0.645174 0.242442
vt 0.561607 0.097832
vt 0.342223 0.233844
vt 0.417268 0.014263
vt 0.250166 0.013791
vt 0.295335 0.239852
vt 0.105087 0.097086
vt 0.258296 0.269290
vt 0.241166 0.313946
vt 0.021186 0.241942
vt 0.934230 0.058456
vt 0.856868 0.347173
vt 0.645512 0.135817
vt 0.425606 0.339103
vt 0.385877 0.253651
vt 0.690177 0.058456
vt 0.767538 0.013791
vt 0.856868 0.013791
vt 0.978894 0.135817
vt 0.978894 0.225147
vt 0.934230 0.302509
vt 0.767538 0.347173
vt 0.690177 0.302509
vt 0.645512 0.225147
vn 0.2519 0.2291 -0.9402
vn 0.6883 0.2291 -0.6883
vn 0.9402 0.2291 -0.2519
vn 0.9402 0.2291 0.2519
vn 0.6883 0.2291 0.6883
vn 0.2519 0.2291 0.9402
vn -0.2519 0.2291 0.9402
vn -0.6883 0.2291 0.6883
vn -0.9402 0.2291 0.2519
vn -0.9402 0.2291 -0.2519
vn 0.0000 1.0000 0.0000
vn -0.6883 0.2291 -0.6883
vn -0.2519 0.2291 -0.9402
vn 0.0000 -1.0000 0.0000
s off
f 2/1/1 3/2/1 1/3/1
f 4/4/2 5/5/2 3/2/2
f 6/6/3 7/7/3 5/5/3
f 8/8/4 9/9/4 7/7/4
f 10/10/5 11/11/5 9/9/5
f 11/11/6 14/12/6 13/13/6
f 14/12/7 15/14/7 13/13/7
f 15/14/8 18/15/8 17/16/8
f 18/15/9 19/17/9 17/16/9
f 20/18/10 21/19/10 19/17/10
f 22/20/11 14/12/11 6/6/11
f 21/19/12 24/21/12 23/22/12
f 24/21/13 1/3/13 23/22/13
f 7/23/14 15/24/14 23/25/14
f 2/1/1 4/4/1 3/2/1
f 4/4/2 6/6/2 5/5/2
f 6/6/3 8/8/3 7/7/3
f 8/8/4 10/10/4 9/9/4
f 10/10/5 12/26/5 11/11/5
f 11/11/6 12/26/6 14/12/6
f 14/12/7 16/27/7 15/14/7
f 15/14/8 16/27/8 18/15/8
f 18/15/9 20/18/9 19/17/9
f 20/18/10 22/20/10 21/19/10
f 6/6/11 4/4/11 22/20/11
f 2/1/11 24/21/11 22/20/11
f 22/20/11 20/18/11 18/15/11
f 18/15/11 16/27/11 14/12/11
f 14/12/11 12/26/11 10/10/11
f 10/10/11 8/8/11 6/6/11
f 4/4/11 2/1/11 22/20/11
f 22/20/11 18/15/11 14/12/11
f 14/12/11 10/10/11 6/6/11
f 21/19/12 22/20/12 24/21/12
f 24/21/13 2/1/13 1/3/13
f 23/25/14 1/28/14 3/29/14
f 3/29/14 5/30/14 7/23/14
f 7/23/14 9/31/14 11/32/14
f 11/32/14 13/33/14 7/23/14
f 15/24/14 17/34/14 19/35/14
f 19/35/14 21/36/14 15/24/14
f 23/25/14 3/29/14 7/23/14
f 7/23/14 13/33/14 15/24/14
f 15/24/14 21/36/14 23/25/14
