# Blender v2.79 (sub 0) OBJ File: 'platform.blend'
# www.blender.org
v 0.000000 0.000000 -1.000000
v 0.000000 0.500000 -1.000000
v 0.500000 0.000000 -0.866025
v 0.500000 0.500000 -0.866025
v 0.866025 0.000000 -0.500000
v 0.866025 0.500000 -0.500000
v 1.000000 0.000000 0.000000
v 1.000000 0.500000 0.000000
v 0.866025 0.000000 0.500000
v 0.866025 0.500000 0.500000
v 0.500000 0.000000 0.866025
v 0.500000 0.500000 0.866025
v 0.000000 0.000000 1.000000
v 0.000000 0.500000 1.000000
v -0.500000 0.000000 0.866026
v -0.500000 0.500000 0.866026
v -0.866025 0.000000 0.500000
v -0.866025 0.500000 0.500000
v -1.000000 0.000000 0.000000
v -1.000000 0.500000 0.000000
v -0.866026 0.000000 -0.499999
v -0.866026 0.500000 -0.499999
v -0.500001 0.000000 -0.866025
v -0.500001 0.500000 -0.866025
vt 0.351774 0.454222
vt 0.507861 0.501046
vt 0.375175 0.571652
vt 0.428791 0.411955
vt 0.585730 0.371094
vt 0.470956 0.335782
vt 0.585024 0.218573
vt 0.466949 0.247348
vt 0.507211 0.086379
vt 0.418652 0.170463
vt 0.373565 0.010192
vt 0.338057 0.127148
vt 0.219980 0.010192
vt 0.246581 0.128970
vt 0.087328 0.085783
vt 0.168494 0.175284
vt 0.010192 0.215999
vt 0.124442 0.251369
vt 0.011491 0.367718
vt 0.127818 0.338427
vt 0.091273 0.497081
vt 0.177049 0.412064
vt 0.224822 0.569149
vt 0.259659 0.452397
vt 0.407965 0.737630
vt 0.010192 0.844213
vt 0.063483 0.645327
vt 0.155787 0.592035
vt 0.262370 0.592035
vt 0.354673 0.645327
vt 0.407965 0.844213
vt 0.354673 0.936517
vt 0.262370 0.989808
vt 0.155787 0.989808
vt 0.063483 0.936517
vt 0.010192 0.737630
vn 0.2588 0.0000 -0.9659
vn 0.7071 0.0000 -0.7071
vn 0.9659 0.0000 -0.2588
vn 0.9659 0.0000 0.2588
vn 0.7071 0.0000 0.7071
vn 0.2588 0.0000 0.9659
vn -0.2588 0.0000 0.9659
vn -0.7071 0.0000 0.7071
vn -0.9659 0.0000 0.2588
vn -0.9659 0.0000 -0.2588
vn 0.0000 1.0000 0.0000
vn -0.7071 0.0000 -0.7071
vn -0.2588 0.0000 -0.9659
vn 0.0000 -1.0000 0.0000
s off
f 2/1/1 3/2/1 1/3/1
f 4/4/2 5/5/2 3/2/2
f 6/6/3 7/7/3 5/5/3
f 8/8/4 9/9/4 7/7/4
f 10/10/5 11/11/5 9/9/5
f 12/12/6 13/13/6 11/11/6
f 14/14/7 15/15/7 13/13/7
f 16/16/8 17/17/8 15/15/8
f 18/18/9 19/19/9 17/17/9
f 20/20/10 21/21/10 19/19/10
f 22/22/11 14/14/11 6/6/11
f 22/22/12 23/23/12 21/21/12
f 24/24/13 1/3/13 23/23/13
f 7/25/14 19/26/14 23/27/14
f 2/1/1 4/4/1 3/2/1
f 4/4/2 6/6/2 5/5/2
f 6/6/3 8/8/3 7/7/3
f 8/8/4 10/10/4 9/9/4
f 10/10/5 12/12/5 11/11/5
f 12/12/6 14/14/6 13/13/6
f 14/14/7 16/16/7 15/15/7
f 16/16/8 18/18/8 17/17/8
f 18/18/9 20/20/9 19/19/9
f 20/20/10 22/22/10 21/21/10
f 6/6/11 4/4/11 2/1/11
f 2/1/11 24/24/11 22/22/11
f 22/22/11 20/20/11 18/18/11
f 18/18/11 16/16/11 14/14/11
f 14/14/11 12/12/11 10/10/11
f 10/10/11 8/8/11 6/6/11
f 6/6/11 2/1/11 22/22/11
f 22/22/11 18/18/11 14/14/11
f 14/14/11 10/10/11 6/6/11
f 22/22/12 24/24/12 23/23/12
f 24/24/13 2/1/13 1/3/13
f 23/27/14 1/28/14 3/29/14
f 3/29/14 5/30/14 7/25/14
f 7/25/14 9/31/14 11/32/14
f 11/32/14 13/33/14 15/34/14
f 15/34/14 17/35/14 19/26/14
f 19/26/14 21/36/14 23/27/14
f 23/27/14 3/29/14 7/25/14
f 7/25/14 11/32/14 15/34/14
f 15/34/14 19/26/14 7/25/14
