# Blender v2.79 (sub 0) OBJ File: 'platform.blend'
# www.blender.org
v 0.000000 0.000000 -1.000000
v 0.000000 0.500000 -1.000000
v 0.500000 0.000000 -0.866025
v 0.500000 0.500000 -0.866025
v 0.866025 0.000000 -0.500000
v 0.866025 0.500000 -0.500000
v 1.000000 0.000000 0.000000
v 1.000000 0.500000 0.000000
v 0.866025 0.000000 0.500000
v 0.866025 0.500000 0.500000
v 0.500000 0.000000 0.866025
v 0.500000 0.500000 0.866025
v 0.000000 0.000000 1.000000
v 0.000000 0.500000 1.000000
v -0.500000 0.000000 0.866026
v -0.500000 0.500000 0.866026
v -0.866025 0.000000 0.500000
v -0.866025 0.500000 0.500000
v -1.000000 0.000000 0.000000
v -1.000000 0.500000 0.000000
v -0.866026 0.000000 -0.499999
v -0.866026 0.500000 -0.499999
v -0.500001 0.000000 -0.866025
v -0.500001 0.500000 -0.866025
vt 0.375175 0.571652
vt 0.351774 0.454222
vt 0.428791 0.411955
vt 0.507861 0.501046
vt 0.470956 0.335782
vt 0.585730 0.371094
vt 0.466949 0.247348
vt 0.585024 0.218573
vt 0.418652 0.170463
vt 0.507211 0.086379
vt 0.338057 0.127148
vt 0.373565 0.010192
vt 0.246581 0.128970
vt 0.219980 0.010192
vt 0.168494 0.175284
vt 0.087328 0.085783
vt 0.124442 0.251369
vt 0.010192 0.215999
vt 0.127818 0.338427
vt 0.011491 0.367718
vt 0.177049 0.412064
vt 0.091273 0.497081
vt 0.259659 0.452397
vt 0.224822 0.569149
vt 0.155787 0.592035
vt 0.262370 0.592035
vt 0.354673 0.645327
vt 0.407965 0.737630
vt 0.407965 0.844213
vt 0.354673 0.936517
vt 0.262370 0.989808
vt 0.155787 0.989808
vt 0.063483 0.936517
vt 0.010192 0.844213
vt 0.010192 0.737630
vt 0.063483 0.645327
vn 0.2588 0.0000 -0.9659
vn 0.7071 0.0000 -0.7071
vn 0.9659 0.0000 -0.2588
vn 0.9659 0.0000 0.2588
vn 0.7071 0.0000 0.7071
vn 0.2588 0.0000 0.9659
vn -0.2588 0.0000 0.9659
vn -0.7071 0.0000 0.7071
vn -0.9659 0.0000 0.2588
vn -0.9659 0.0000 -0.2588
vn 0.0000 1.0000 -0.0000
vn -0.7071 0.0000 -0.7071
vn -0.2588 0.0000 -0.9659
vn 0.0000 -1.0000 0.0000
s off
f 1/1/1 2/2/1 4/3/1 3/4/1
f 3/4/2 4/3/2 6/5/2 5/6/2
f 5/6/3 6/5/3 8/7/3 7/8/3
f 7/8/4 8/7/4 10/9/4 9/10/4
f 9/10/5 10/9/5 12/11/5 11/12/5
f 11/12/6 12/11/6 14/13/6 13/14/6
f 13/14/7 14/13/7 16/15/7 15/16/7
f 15/16/8 16/15/8 18/17/8 17/18/8
f 17/18/9 18/17/9 20/19/9 19/20/9
f 19/20/10 20/19/10 22/21/10 21/22/10
f 4/3/11 2/2/11 24/23/11 22/21/11 20/19/11 18/17/11 16/15/11 14/13/11 12/11/11 10/9/11 8/7/11 6/5/11
f 21/22/12 22/21/12 24/23/12 23/24/12
f 23/24/13 24/23/13 2/2/13 1/1/13
f 1/25/14 3/26/14 5/27/14 7/28/14 9/29/14 11/30/14 13/31/14 15/32/14 17/33/14 19/34/14 21/35/14 23/36/14
