# Blender v2.79 (sub 0) OBJ File: 'arena.blend'
# www.blender.org
v -5.742600 0.000000 5.742600
v 5.742600 0.000000 5.742600
v -5.742600 0.000000 -5.742600
v 5.742600 0.000000 -5.742600
v -7.045623 0.000000 -3.522812
v -7.516951 0.000000 -0.000000
v -7.045623 0.000000 3.522812
v -3.522812 0.000000 7.045623
v 0.000000 0.000000 7.516951
v 3.522812 0.000000 7.045623
v 7.045623 0.000000 3.522812
v 7.516951 0.000000 -0.000000
v 7.045623 0.000000 -3.522812
v 3.522812 0.000000 -7.045623
v 0.000000 0.000000 -7.516951
v -3.522812 0.000000 -7.045623
v -5.742600 5.357511 5.742600
v 5.742600 5.357511 5.742600
v -5.742600 5.357511 -5.742600
v 5.742600 5.357511 -5.742600
v -7.045623 5.357511 -3.522812
v -7.516951 5.357511 -0.000000
v -7.045623 5.357511 3.522812
v -3.522812 5.357511 7.045623
v 0.000000 5.357511 7.516951
v 3.522812 5.357511 7.045623
v 7.045623 5.357511 3.522812
v 7.516951 5.357511 -0.000000
v 7.045623 5.357511 -3.522812
v 3.522812 5.357511 -7.045623
v 0.000000 5.357511 -7.516951
v -3.522812 5.357511 -7.045623
vt 0.535418 0.424791
vt 0.176476 0.518341
vt 0.082964 0.159579
vt 0.686818 0.797325
vt 0.593086 0.992421
vt 0.593086 0.797325
vt 0.780550 0.602229
vt 0.686818 0.797325
vt 0.686818 0.602229
vt 0.463658 0.992421
vt 0.463658 0.797325
vt 0.593086 0.797325
vt 0.593086 0.602229
vt 0.463658 0.602229
vt 0.334231 0.797325
vt 0.334231 0.602229
vt 0.463658 0.797325
vt 0.463658 0.602229
vt 0.240499 0.602229
vt 0.146767 0.797325
vt 0.146767 0.602229
vt 0.463658 0.797325
vt 0.334231 0.992421
vt 0.334231 0.797325
vt 0.017339 0.797325
vt 0.017339 0.602229
vt 0.240499 0.797325
vt 0.146767 0.992421
vt 0.146767 0.797325
vt 0.240499 0.992421
vt 0.909977 0.602229
vt 0.780550 0.797325
vt 0.017339 0.992421
vt 0.017339 0.797325
vt 0.780550 0.797325
vt 0.686818 0.992421
vt 0.909977 0.797325
vt 0.780550 0.992421
vt 0.240499 0.797325
vt 0.159238 0.061777
vt 0.441821 0.065688
vt 0.237595 0.017861
vt 0.327413 0.017733
vt 0.539586 0.142099
vt 0.583447 0.310418
vt 0.583415 0.220563
vt 0.458994 0.522504
vt 0.290760 0.566319
vt 0.380563 0.566298
vt 0.078865 0.442041
vt 0.035064 0.273958
vt 0.035116 0.363722
vt 0.463658 0.797325
vt 0.463658 0.992421
vt 0.909977 0.797325
vt 0.909977 0.992421
vn 0.0000 1.0000 0.0000
vn -0.8624 0.0000 -0.5062
vn 0.5062 0.0000 0.8624
vn -0.9912 0.0000 -0.1326
vn 0.8624 0.0000 0.5062
vn -0.9912 0.0000 0.1326
vn 0.9912 0.0000 0.1326
vn -0.5062 0.0000 0.8624
vn 0.9912 0.0000 -0.1326
vn -0.1326 0.0000 0.9912
vn 0.5062 0.0000 -0.8624
vn 0.8624 0.0000 -0.5062
vn 0.1326 0.0000 0.9912
vn 0.1326 0.0000 -0.9912
vn -0.5062 0.0000 -0.8624
vn -0.1326 0.0000 -0.9912
vn -0.8624 0.0000 0.5062
s off
f 12/1/1 15/2/1 6/3/1
f 2/4/2 27/5/2 11/6/2
f 16/7/3 19/8/3 3/9/3
f 11/6/4 28/10/4 12/11/4
f 3/9/5 21/12/5 5/13/5
f 12/14/6 29/15/6 13/16/6
f 5/13/7 22/17/7 6/18/7
f 4/19/8 30/20/8 14/21/8
f 6/22/9 23/23/9 7/24/9
f 14/21/10 31/25/10 15/26/10
f 1/27/11 24/28/11 8/29/11
f 7/24/12 17/30/12 1/27/12
f 15/31/13 32/32/13 16/7/13
f 8/29/14 25/33/14 9/34/14
f 10/35/15 18/36/15 2/4/15
f 9/37/16 26/38/16 10/35/16
f 13/16/17 20/39/17 4/19/17
f 6/3/1 7/40/1 9/41/1
f 1/42/1 8/43/1 7/40/1
f 9/41/1 10/44/1 11/45/1
f 2/46/1 11/45/1 10/44/1
f 12/1/1 13/47/1 14/48/1
f 4/49/1 14/48/1 13/47/1
f 15/2/1 16/50/1 5/51/1
f 3/52/1 5/51/1 16/50/1
f 7/40/1 8/43/1 9/41/1
f 9/41/1 11/45/1 12/1/1
f 12/1/1 14/48/1 15/2/1
f 15/2/1 5/51/1 6/3/1
f 6/3/1 9/41/1 12/1/1
f 2/4/2 18/36/2 27/5/2
f 16/7/3 32/32/3 19/8/3
f 11/6/4 27/5/4 28/10/4
f 3/9/5 19/8/5 21/12/5
f 12/14/6 28/53/6 29/15/6
f 5/13/7 21/12/7 22/17/7
f 4/19/8 20/39/8 30/20/8
f 6/22/9 22/54/9 23/23/9
f 14/21/10 30/20/10 31/25/10
f 1/27/11 17/30/11 24/28/11
f 7/24/12 23/23/12 17/30/12
f 15/31/13 31/55/13 32/32/13
f 8/29/14 24/28/14 25/33/14
f 10/35/15 26/38/15 18/36/15
f 9/37/16 25/56/16 26/38/16
f 13/16/17 29/15/17 20/39/17
