# Blender v2.79 (sub 0) OBJ File: 'switch.blend'
# www.blender.org
v -0.000000 0.008334 -0.839026
v -0.000000 1.709974 -0.424441
v 0.419513 0.008334 -0.726618
v 0.212221 1.709974 -0.367577
v 0.726618 0.008334 -0.419513
v 0.367577 1.709974 -0.212221
v 0.839026 0.008334 0.000000
v 0.424442 1.709974 0.000000
v 0.726618 0.008334 0.419513
v 0.367577 1.709974 0.212221
v 0.419513 0.008334 0.726618
v 0.212221 1.709974 0.367577
v 0.000000 0.008334 0.839026
v 0.000000 1.709974 0.424442
v -0.419513 0.008334 0.726618
v -0.212221 1.709974 0.367577
v -0.726618 0.008334 0.419513
v -0.367577 1.709974 0.212221
v -0.839026 0.008334 0.000000
v -0.424442 1.709974 0.000000
v -0.726618 0.008334 -0.419512
v -0.367577 1.709974 -0.212220
v -0.419513 0.008334 -0.726617
v -0.212221 1.709974 -0.367577
vt 0.021105 0.409395
vt 0.248788 0.361760
vt 0.279387 0.399788
vt 0.104835 0.554402
vt 0.324873 0.417694
vt 0.249785 0.638052
vt 0.372233 0.412037
vt 0.416964 0.638052
vt 0.409247 0.383191
vt 0.561793 0.554454
vt 0.425606 0.339103
vt 0.645320 0.409575
vt 0.417387 0.291501
vt 0.645174 0.242442
vt 0.385877 0.253651
vt 0.561607 0.097832
vt 0.342223 0.233844
vt 0.417268 0.014263
vt 0.295335 0.239852
vt 0.250166 0.013791
vt 0.258296 0.269290
vt 0.105087 0.097086
vt 0.241166 0.313946
vt 0.021186 0.241942
vt 0.690177 0.058456
vt 0.767538 0.013791
vt 0.856868 0.013791
vt 0.934230 0.058456
vt 0.978894 0.135817
vt 0.978894 0.225147
vt 0.934230 0.302509
vt 0.856868 0.347173
vt 0.767538 0.347173
vt 0.690177 0.302509
vt 0.645512 0.225147
vt 0.645512 0.135817
vn 0.2519 0.2291 -0.9402
vn 0.6883 0.2291 -0.6883
vn 0.9402 0.2291 -0.2519
vn 0.9402 0.2291 0.2519
vn 0.6883 0.2291 0.6883
vn 0.2519 0.2291 0.9402
vn -0.2519 0.2291 0.9402
vn -0.6883 0.2291 0.6883
vn -0.9402 0.2291 0.2519
vn -0.9402 0.2291 -0.2519
vn 0.0000 1.0000 -0.0000
vn -0.6883 0.2291 -0.6883
vn -0.2519 0.2291 -0.9402
vn 0.0000 -1.0000 0.0000
s off
f 1/1/1 2/2/1 4/3/1 3/4/1
f 3/4/2 4/3/2 6/5/2 5/6/2
f 5/6/3 6/5/3 8/7/3 7/8/3
f 7/8/4 8/7/4 10/9/4 9/10/4
f 9/10/5 10/9/5 12/11/5 11/12/5
f 11/12/6 12/11/6 14/13/6 13/14/6
f 13/14/7 14/13/7 16/15/7 15/16/7
f 15/16/8 16/15/8 18/17/8 17/18/8
f 17/18/9 18/17/9 20/19/9 19/20/9
f 19/20/10 20/19/10 22/21/10 21/22/10
f 4/3/11 2/2/11 24/23/11 22/21/11 20/19/11 18/17/11 16/15/11 14/13/11 12/11/11 10/9/11 8/7/11 6/5/11
f 21/22/12 22/21/12 24/23/12 23/24/12
f 23/24/13 24/23/13 2/2/13 1/1/13
f 1/25/14 3/26/14 5/27/14 7/28/14 9/29/14 11/30/14 13/31/14 15/32/14 17/33/14 19/34/14 21/35/14 23/36/14
